# AST/ASF file generated using VICON BodyLanguage
# -----------------------------------------------
:version 1.10
:name VICON
:units
  mass 1.0
  length 0.45
  angle deg
:documentation
   .ast/.asf automatically generated from VICON data using
   VICON BodyBuilder and BodyLanguage model FoxedUp or BRILLIANT.MOD
:root
   order TX TY TZ RX RY RZ
   axis XYZ
   position 0 0 0  
   orientation 0 0 0 
:bonedata
  begin
     id 1 
     name lhipjoint
     direction 0.756833 -0.6125 0.228138 
     length 2.53827 
     axis 0 0 0  XYZ
  end
  begin
     id 2 
     name lfemur
     direction 0.34202 -0.939693 0  
     length 6.51821  
     axis 0 0 20  XYZ
    dof rx ry rz
    limits (-160.0 20.0)
           (-70.0 70.0)
           (-60.0 70.0)
  end
  begin
     id 3 
     name ltibia
     direction 0.34202 -0.939693 0   
     length 6.99902   
     axis 0 0 20   XYZ
    dof rx
    limits (-10.0 170.0)
  end
  begin
     id 4 
     name lfoot
     direction 0.0951515 -0.261427 0.960522   
     length 1.92102   
     axis -90 7.62852e-016 20   XYZ
    dof rx rz
    limits (-45.0 90.0)
           (-70.0 20.0)
  end
  begin
     id 5 
     name ltoes
     direction 1.53539e-011 -4.21781e-011 1   
     length 0.964376   
     axis -90 7.62852e-016 20   XYZ
    dof rx
    limits (-90.0 20.0)
  end
  begin
     id 6 
     name rhipjoint
     direction -0.752153 -0.617542 0.230017   
     length 2.51754  
     axis 0 0 0  XYZ 
  end
  begin
     id 7 
     name rfemur
     direction -0.34202 -0.939693 0   
     length 6.82377   
     axis 0 0 -20   XYZ
    dof rx ry rz
    limits (-160.0 20.0)
           (-70.0 70.0)
           (-70.0 60.0)
  end
  begin
     id 8 
     name rtibia
     direction -0.34202 -0.939693 0   
     length 6.98689   
     axis 0 0 -20   XYZ
    dof rx
    limits (-10.0 170.0)
 end
 begin
     id 9 
     name rfoot
     direction -0.0900426 -0.24739 0.964723   
     length 2.03215  
     axis -90 -7.62852e-016 -20   XYZ
    dof rx rz
    limits (-45.0 90.0)
           (-20.0 70.0)
  end
  begin
     id 10 
     name rtoes
     direction -1.53466e-011 -4.22206e-011 1   
     length 1.0197   
     axis -90 -7.62852e-016 -20   XYZ
    dof rx
    limits (-90.0 20.0)
  end
  begin
     id 11 
     name lowerback
     direction 0.0184183 0.995705 -0.0907278   
     length 2.019   
     axis 0 0 0   XYZ
    dof rx ry rz
    limits (-20.0 45.0)
           (-30.0 30.0)
           (-30.0 30.0)
  end
  begin
     id 12 
     name upperback
     direction 0.00281055 0.998777 0.0493607   
     length 1.99623   
     axis 0 0 0   XYZ
    dof rx ry rz
    limits (-20.0 45.0)
           (-30.0 30.0)
           (-30.0 30.0)
  end
  begin
     id 13 
     name thorax
     direction -0.00665507 0.995706 0.092331   
     length 2.02811   
     axis 0 0 0   XYZ
    dof rx ry rz
    limits (-20.0 45.0)
           (-30.0 30.0)
           (-30.0 30.0)
  end
  begin
     id 14 
     name lowerneck
     direction -0.0960965 0.994358 0.0449225   
     length 1.71265   
     axis 0 0 0   XYZ
    dof rx ry rz
    limits (-20.0 45.0)
           (-30.0 30.0)
           (-30.0 30.0)
  end
  begin
     id 15 
     name upperneck
     direction 0.13642 0.985357 -0.102278   
     length 1.73016   
     axis 0 0 0   XYZ
    dof rx ry rz
    limits (-20.0 45.0)
           (-30.0 30.0)
           (-30.0 30.0)
  end
  begin
     id 16
     name head
     direction 0.0556079 0.997632 -0.040479  
     length 1.74275  
     axis 0 0 0   XYZ
    dof rx ry rz
    limits (-20.0 45.0)
           (-30.0 30.0)
           (-30.0 30.0)
  end
  begin
     id 17 
     name lclavicle
     direction 0.90877 0.417247 -0.00652364  
     length 3.25514  
     axis 0 0 0   XYZ
    dof ry rz
    limits (-20.0 10.0)
           (0.0 20.0)
  end
  begin
     id 18 
     name lhumerus
     direction 1 -4.48949e-011 8.31417e-028   
     length 4.84834   
     axis 180 -30 -90   XYZ
    dof rx ry rz
    limits (-60.0 90.0)
           (-90.0 90.0)
           (-90.0 90.0)
  end
  begin
     id 19
     name lradius
     direction 1 -4.48984e-011 3.45616e-027   
     length 2.99713   
     axis 180 -30 -90   XYZ
    dof rx
    limits (-10.0 170.0)
  end
  begin
     id 20
     name lwrist
     direction 1 -4.4891e-011 4.0479e-027   
     length 1.49857   
     axis -1.61768e-015 90 90   XYZ
    dof ry
    limits (-180.0 0.0)
 end
  begin
     id 21 
     name lhand
     direction 1 -4.49025e-011 8.0958e-027   
     length 0.693987   
     axis -5.16581e-015 90 90   XYZ
    dof rx rz
    limits (-90.0 90.0)
           (-45.0 45.0)
  end
  begin
     id 22 
     name lfingers
     direction 1 -4.4888e-011 1.61916e-026   
     length 0.55951   
     axis -1.03316e-014 90 90   XYZ
    dof rx
    limits (0.0 90.0)
  end
  begin
     id 23
     name lthumb
     direction 0.707107 -6.3493e-011 0.707107   
     length 0.803348   
     axis -90 45 2.85299e-015   XYZ
    dof rx rz
    limits (-45.0 45.0)
           (-45.0 45.0)
  end
  begin
     id 24 
     name rclavicle
     direction -0.906655 0.41906 0.0486307   
     length 3.3311  
     axis 0 0 0   XYZ 
    dof ry rz
    limits (-10.0 20.0)
           (-20.0 0.0)
  end
  begin
     id 25 
     name rhumerus
     direction -1 -4.48959e-011 6.37764e-018  
     length 4.93457   
     axis 180 30 90   XYZ
    dof rx ry rz
    limits (-90.0 60.0)
           (-90.0 90.0)
           (-90.0 90.0)
  end
  begin
     id 26 
     name rradius
     direction -1 -4.48957e-011 2.20847e-027   
     length 3.3443   
     axis 180 30 90   XYZ
    dof rx
    limits (-10.0 170.0)
  end
  begin
     id 27 
     name rwrist
     direction -1 -4.49008e-011 4.0479e-027   
     length 1.67215   
     axis -1.61768e-015 -90 -90   XYZ
    dof ry
    limits (-180.0 0.0)
  end
  begin
     id 28
     name rhand
     direction -1 -4.49013e-011 8.0958e-027   
     length 0.677363   
     axis -5.16581e-015 -90 -90   XYZ
    dof rx rz
    limits (-90.0 90.0)
           (-45.0 45.0)
  end
  begin
     id 29
     name rfingers
     direction -1 -4.48832e-011 1.61916e-026   
     length 0.546107   
     axis -1.03316e-014 -90 -90   XYZ
    dof rx
    limits (0.0 90.0)
  end
  begin
     id 30
     name rthumb
     direction -0.707107 -6.34895e-011 0.707107   
     length 0.784104   
     axis -90 -45 -2.85299e-015   XYZ
    dof rx rz
    limits (-45.0 45.0)
           (-45.0 45.0)
  end
:hierarchy
  begin
    root lhipjoint rhipjoint lowerback
    lhipjoint lfemur
    lfemur ltibia
    ltibia lfoot
    lfoot ltoes
    rhipjoint rfemur
    rfemur rtibia
    rtibia rfoot
    rfoot rtoes
    lowerback upperback
    upperback thorax
    thorax lowerneck lclavicle rclavicle
    lowerneck upperneck
    upperneck head
    lclavicle lhumerus
    lhumerus lradius
    lradius lwrist
    lwrist lhand lthumb
    lhand lfingers
    rclavicle rhumerus
    rhumerus rradius
    rradius rwrist
    rwrist rhand rthumb
    rhand rfingers
  end

#!OML:ASF H:\Terrain\Patient Classification 1\junglegym\FridayTest\junglegym.ASF
:FULLY-SPECIFIED
:DEGREES
106
root -10.49 14.9866 -0.00400054 106.749 -87.241 -133.877
lowerback 15.5982 -0.37691 0.852162
upperback -3.40905 -0.190988 1.23153
thorax -12.5793 -0.0973628 0.928062
lowerneck 4.17757 2.13333 -14.4859
upperneck 34.8595 -1.52787 10.4416
head 10.6012 -2.48425 6.20211
rclavicle 3.08116e-015 -2.0276e-014
rhumerus 101.72 -18.0894 -59.0288
rradius 24.8686
rwrist 6.03019
rhand 16.9424 20.0824
rfingers 7.12502
rthumb 41.6768 -4.61497
lclavicle 3.08116e-015 -2.0276e-014
lhumerus 98.4276 20.5071 58.6677
lradius 26.3057
lwrist -28.1213
lhand 7.4771 16.0391
lfingers 7.12502
lthumb 32.7297 43.0959
rfemur -27.1036 -2.74196 30.2333
rtibia 43.9022
rfoot 0.554547 -5.83426
rtoes 10.6526
lfemur -25.9374 1.63178 -19.3427
ltibia 57.9027
lfoot -10.5237 7.05653
ltoes -32.2153
107
root -10.771 15.0162 -0.00110314 94.7172 -86.9228 -122.303
lowerback 15.2655 -0.582256 1.35482
upperback -3.36562 -0.352416 1.43654
thorax -12.3326 -0.202911 0.906344
lowerneck 4.13477 2.13457 -14.604
upperneck 35.021 -1.52462 10.4105
head 10.6765 -2.51229 6.21894
rclavicle 1.55052e-014 -1.96797e-014
rhumerus 101.784 -18.3927 -58.5652
rradius 25.0391
rwrist 5.26325
rhand 17.123 19.969
rfingers 7.12502
rthumb 41.8461 -4.67239
lclavicle 1.55052e-014 -1.96797e-014
lhumerus 98.5352 20.7653 58.5908
lradius 26.3838
lwrist -27.7339
lhand 8.08766 16.4478
lfingers 7.12502
lthumb 33.3104 43.382
rfemur -27.483 -1.90367 30.4994
rtibia 43.3176
rfoot 1.21965 -5.96829
rtoes 15.6251
lfemur -26.4456 1.38642 -18.9085
ltibia 56.3023
lfoot -8.87831 6.72491
ltoes -37.6609
108
root -11.0478 15.0533 -0.00547423 85.1131 -87.0017 -113.158
lowerback 14.9472 -0.494143 1.46684
upperback -3.32138 -0.241293 1.24057
thorax -12.0938 -0.167082 0.593543
lowerneck 4.11974 1.79456 -13.8452
upperneck 35.2295 -2.04703 10.2491
head 10.8359 -2.6876 5.99476
rclavicle -1.37658e-014 2.97183e-014
rhumerus 101.906 -19.001 -58.7878
rradius 24.7463
rwrist 5.62123
rhand 16.8226 19.7905
rfingers 7.12502
rthumb 41.5644 -4.94385
lclavicle -1.37658e-014 2.97183e-014
lhumerus 98.9969 20.4137 58.4193
lradius 26.3402
lwrist -26.8884
lhand 8.12202 16.7077
lfingers 7.12502
lthumb 33.343 43.6349
rfemur -27.9496 -0.910557 30.1722
rtibia 42.8809
rfoot 1.99292 -6.0627
rtoes 19.1478
lfemur -26.8821 1.3086 -19.011
ltibia 54.6013
lfoot -7.17841 6.12992
ltoes -40.8707
109
root -11.3247 15.0675 0.00329299 77.7222 -87.9575 -106.758
lowerback 15.2276 -0.282905 0.716629
upperback -3.13245 -0.138419 0.888697
thorax -12.0423 -0.0780508 0.605832
lowerneck 4.28191 1.59224 -13.5458
upperneck 35.3697 -2.45533 10.3624
head 10.9183 -2.84671 5.96282
rclavicle -2.4202e-014 5.3324e-014
rhumerus 102.674 -19.0112 -59.9214
rradius 24.0975
rwrist 7.08686
rhand 16.7731 20.0957
rfingers 7.12502
rthumb 41.518 -4.65385
lclavicle -2.4202e-014 5.3324e-014
lhumerus 99.4168 20.2571 58.6211
lradius 26.0369
lwrist -26.6394
lhand 7.84712 16.3357
lfingers 7.12502
lthumb 33.0817 43.3187
rfemur -27.9565 -0.630857 28.9642
rtibia 42.5094
rfoot 2.87061 -5.2826
rtoes 21.5458
lfemur -26.6379 1.30022 -20.1451
ltibia 52.8673
lfoot -4.87529 4.6719
ltoes -38.2666
110
root -11.5925 15.079 0.00832581 73.6023 -88.2484 -103.269
lowerback 15.3166 -0.22345 0.367047
upperback -3.09289 -0.124664 0.908325
thorax -12.0491 -0.0454634 0.822499
lowerneck 4.981 1.42463 -13.1269
upperneck 34.9779 -2.67475 9.91019
head 10.6603 -2.94533 5.67429
rclavicle -8.82107e-015 5.76476e-014
rhumerus 103.213 -18.9445 -60.399
rradius 23.8768
rwrist 7.50553
rhand 17.0278 20.5384
rfingers 7.12502
rthumb 41.7568 -4.13254
lclavicle -8.82107e-015 5.76476e-014
lhumerus 99.4656 20.4847 58.6492
lradius 25.8733
lwrist -26.2872
lhand 7.60996 15.8751
lfingers 7.12502
lthumb 32.8561 42.9056
rfemur -28.1684 -0.252261 28.5526
rtibia 41.6623
rfoot 3.67137 -4.69753
rtoes 24.6041
lfemur -27.0413 1.15897 -20.4671
ltibia 51.5584
lfoot -3.42408 4.09455
ltoes -40.9662
111
root -11.843 15.1141 0.0176145 60.4499 -88.7828 -91.2285
lowerback 15.9437 -0.157075 -0.116553
upperback -2.98479 -0.150083 0.726746
thorax -12.2969 -0.029378 0.907492
lowerneck 6.1044 1.17566 -12.2069
upperneck 34.1828 -2.91028 9.01685
head 10.1635 -3.02223 5.11863
rclavicle 6.95746e-015 -1.92324e-014
rhumerus 103.236 -19.1277 -60.3589
rradius 23.9953
rwrist 7.10192
rhand 17.0753 20.0222
rfingers 7.12502
rthumb 41.8014 -4.63403
lclavicle 6.95746e-015 -1.92324e-014
lhumerus 99.4847 20.4943 58.4495
lradius 25.8829
lwrist -25.7913
lhand 7.51785 15.9449
lfingers 7.12502
lthumb 32.7685 42.9937
rfemur -27.7896 0.761845 27.6533
rtibia 40.7338
rfoot 4.00632 -4.65477
rtoes 24.5922
lfemur -26.7998 0.695548 -21.1414
ltibia 50.3352
lfoot -1.96969 3.58361
ltoes -37.602
112
root -12.1155 15.1708 0.054284 74.8077 -85.188 -106.675
lowerback 15.9819 -0.662712 4.05394
upperback -2.77189 0.106577 1.61267
thorax -12.0908 -0.174158 -0.547099
lowerneck 5.68421 1.46165 -13.3873
upperneck 34.8296 -2.88173 10.43
head 10.5015 -3.0566 5.9016
rclavicle 9.36773e-015 -6.45056e-014
rhumerus 103.056 -19.4764 -59.9831
rradius 24.2701
rwrist 6.62458
rhand 17.5119 20.5442
rfingers 7.12502
rthumb 42.2106 -3.97485
lclavicle 9.36773e-015 -6.45056e-014
lhumerus 99.3424 20.7271 57.8977
lradius 26.1227
lwrist -25.0792
lhand 7.8744 16.7205
lfingers 7.12502
lthumb 33.1076 43.6979
rfemur -26.7843 1.35535 31.1801
rtibia 39.4808
rfoot 3.70824 -4.50493
rtoes 24.3903
lfemur -26.9933 0.679182 -17.2744
ltibia 49.6881
lfoot -0.798365 2.31936
ltoes -35.2092
113
root -12.3869 15.1926 0.060459 75.0149 -83.8753 -107.218
lowerback 15.653 -0.797806 5.27437
upperback -2.81557 0.1925 2.07724
thorax -11.951 -0.203044 -0.746683
lowerneck 5.98201 1.37599 -13.4377
upperneck 34.6942 -2.9748 10.1997
head 10.4116 -3.13351 5.80892
rclavicle -2.68608e-014 5.16343e-014
rhumerus 102.826 -19.8061 -59.2569
rradius 24.5505
rwrist 6.03433
rhand 17.7869 22.2274
rfingers 7.12502
rthumb 42.4681 -2.20386
lclavicle -2.68608e-014 5.16343e-014
lhumerus 99.1598 21.116 57.5498
lradius 26.3435
lwrist -24.6679
lhand 8.64781 17.6652
lfingers 7.12502
lthumb 33.8427 44.4838
rfemur -27.2253 2.13778 32.3903
rtibia 38.8228
rfoot 3.48065 -4.00492
rtoes 23.3835
lfemur -27.9113 0.73484 -15.8826
ltibia 48.6665
lfoot 0.861044 1.23084
ltoes -36.8185
114
root -12.6522 15.2341 0.0619953 72.5647 -84.4986 -105.139
lowerback 15.3108 -0.766476 4.35351
upperback -2.83293 0.0383572 2.14249
thorax -11.7697 -0.204985 -0.119777
lowerneck 6.42282 1.37502 -13.0719
upperneck 34.5508 -2.87338 9.57684
head 10.26 -3.10813 5.50096
rclavicle -4.27387e-015 8.34896e-015
rhumerus 102.811 -19.7372 -58.7808
rradius 24.7827
rwrist 5.51688
rhand 16.9651 21.8708
rfingers 7.12502
rthumb 41.698 -2.81959
lclavicle -4.27387e-015 8.34896e-015
lhumerus 99.1387 21.2886 58.0383
lradius 26.3086
lwrist -25.1432
lhand 9.04708 17.651
lfingers 7.12502
lthumb 34.222 44.3852
rfemur -27.7567 2.48388 31.6404
rtibia 38.3766
rfoot 3.16168 -3.01457
rtoes 21.8265
lfemur -28.4613 0.520492 -16.6293
ltibia 47.5412
lfoot 2.34995 0.650228
ltoes -38.1569
115
root -12.903 15.307 0.0628577 63.2764 -86.0691 -96.3344
lowerback 14.877 -0.65468 2.41894
upperback -2.75387 -0.223004 1.94758
thorax -11.4148 -0.196819 0.815697
lowerneck 6.05193 1.61064 -14.0721
upperneck 35.0994 -2.64582 10.0514
head 10.5287 -3.10906 5.89977
rclavicle -1.36167e-014 6.97734e-014
rhumerus 103.285 -19.377 -58.923
rradius 24.7003
rwrist 5.69896
rhand 16.3753 21.0739
rfingers 7.12502
rthumb 41.1446 -3.7964
lclavicle -1.36167e-014 6.97734e-014
lhumerus 99.2381 21.525 58.5705
lradius 26.0468
lwrist -25.3096
lhand 8.89169 17.2287
lfingers 7.12502
lthumb 34.0744 43.9959
rfemur -28.3192 3.65889 29.524
rtibia 38.5209
rfoot 1.94527 -3.06432
rtoes 20.9653
lfemur -28.4675 0.137434 -18.562
ltibia 45.998
lfoot 3.46166 0.346921
ltoes -39.5557
116
root -13.1489 15.3766 0.0604855 57.9826 -86.2624 -91.1515
lowerback 14.1422 -0.63801 2.00181
upperback -2.79569 -0.299773 1.98768
thorax -11.0252 -0.203108 1.10254
lowerneck 5.82767 1.5976 -14.3294
upperneck 35.5163 -2.66885 10.0314
head 10.7488 -3.17692 5.95394
rclavicle -9.14409e-015 3.33958e-014
rhumerus 103.485 -19.5012 -58.6936
rradius 24.6862
rwrist 5.48041
rhand 16.4172 20.6851
rfingers 7.12502
rthumb 41.1839 -4.17252
lclavicle -9.14409e-015 3.33958e-014
lhumerus 99.4089 21.7477 58.6998
lradius 25.8099
lwrist -25.0197
lhand 9.02528 17.3559
lfingers 7.12502
lthumb 34.2013 44.0948
rfemur -29.2618 5.49385 28.7435
rtibia 38.7003
rfoot 0.217323 -3.94425
rtoes 17.0085
lfemur -29.0941 -0.231391 -18.9429
ltibia 44.5176
lfoot 5.05382 -0.638956
ltoes -38.3425
